# AST/ASF file generated using VICON BodyLanguage
# -----------------------------------------------
:version 1.10
:name VICON
:units
  mass 1.0
  length 0.45
  angle deg
:documentation
   .ast/.asf automatically generated from VICON data using
   VICON BodyBuilder and BodyLanguage model FoxedUp or BRILLIANT.MOD
:root
   order TX TY TZ RX RY RZ
   axis XYZ
   position 0 0 0  
   orientation 0 0 0 
:bonedata
  begin
     id 1 
     name lhipjoint
     direction 0.734343 -0.627749 0.258209 
     length 2.5437 
     axis 0 0 0  XYZ
  end
  begin
     id 2 
     name lfemur
     direction 0.34202 -0.939693 0  
     length 6.7391  
     axis 0 0 20  XYZ
    dof rx ry rz
    limits (-160.0 20.0)
           (-70.0 70.0)
           (-60.0 70.0)
  end
  begin
     id 3 
     name ltibia
     direction 0.34202 -0.939693 0   
     length 7.21536   
     axis 0 0 20   XYZ
    dof rx
    limits (-10.0 170.0)
  end
  begin
     id 4 
     name lfoot
     direction 0.0489572 -0.134509 0.989702   
     length 1.61313   
     axis -90 7.62852e-016 20   XYZ
    dof rx rz
    limits (-45.0 90.0)
           (-70.0 20.0)
  end
  begin
     id 5 
     name ltoes
     direction 1.53451e-011 -4.21692e-011 1   
     length 0.823104   
     axis -90 7.62852e-016 20   XYZ
    dof rx
    limits (-90.0 20.0)
  end
  begin
     id 6 
     name rhipjoint
     direction -0.746398 -0.615468 0.253157   
     length 2.59446  
     axis 0 0 0  XYZ 
  end
  begin
     id 7 
     name rfemur
     direction -0.34202 -0.939693 0   
     length 6.7075   
     axis 0 0 -20   XYZ
    dof rx ry rz
    limits (-160.0 20.0)
           (-70.0 70.0)
           (-70.0 60.0)
  end
  begin
     id 8 
     name rtibia
     direction -0.34202 -0.939693 0   
     length 7.27262   
     axis 0 0 -20   XYZ
    dof rx
    limits (-10.0 170.0)
 end
 begin
     id 9 
     name rfoot
     direction -0.0455203 -0.125066 0.991104   
     length 1.91095  
     axis -90 -7.62852e-016 -20   XYZ
    dof rx rz
    limits (-45.0 90.0)
           (-20.0 70.0)
  end
  begin
     id 10 
     name rtoes
     direction -1.53601e-011 -4.21913e-011 1   
     length 0.969037   
     axis -90 -7.62852e-016 -20   XYZ
    dof rx
    limits (-90.0 20.0)
  end
  begin
     id 11 
     name lowerback
     direction 0.0181546 0.999122 -0.0377542   
     length 1.99916   
     axis 0 0 0   XYZ
    dof rx ry rz
    limits (-20.0 45.0)
           (-30.0 30.0)
           (-30.0 30.0)
  end
  begin
     id 12 
     name upperback
     direction 0.0203486 0.99589 0.0882534   
     length 1.951   
     axis 0 0 0   XYZ
    dof rx ry rz
    limits (-20.0 45.0)
           (-30.0 30.0)
           (-30.0 30.0)
  end
  begin
     id 13 
     name thorax
     direction 0.0131685 0.994241 0.106355   
     length 1.97461   
     axis 0 0 0   XYZ
    dof rx ry rz
    limits (-20.0 45.0)
           (-30.0 30.0)
           (-30.0 30.0)
  end
  begin
     id 14 
     name lowerneck
     direction -0.0281395 0.999325 0.023617   
     length 1.7959   
     axis 0 0 0   XYZ
    dof rx ry rz
    limits (-20.0 45.0)
           (-30.0 30.0)
           (-30.0 30.0)
  end
  begin
     id 15 
     name upperneck
     direction 0.0288721 0.991984 -0.123019   
     length 1.79917   
     axis 0 0 0   XYZ
    dof rx ry rz
    limits (-20.0 45.0)
           (-30.0 30.0)
           (-30.0 30.0)
  end
  begin
     id 16
     name head
     direction 0.0133797 0.998944 -0.0439492  
     length 1.80902  
     axis 0 0 0   XYZ
    dof rx ry rz
    limits (-20.0 45.0)
           (-30.0 30.0)
           (-30.0 30.0)
  end
  begin
     id 17 
     name lclavicle
     direction 0.919195 0.377107 0.113449  
     length 3.17815  
     axis 0 0 0   XYZ
    dof ry rz
    limits (-20.0 10.0)
           (0.0 20.0)
  end
  begin
     id 18 
     name lhumerus
     direction 1 -4.48959e-011 2.13129e-027   
     length 4.84137   
     axis 180 -30 -90   XYZ
    dof rx ry rz
    limits (-60.0 90.0)
           (-90.0 90.0)
           (-90.0 90.0)
  end
  begin
     id 19
     name lradius
     direction 1 -4.48957e-011 -6.30627e-028   
     length 3.2452   
     axis 180 -30 -90   XYZ
    dof rx
    limits (-10.0 170.0)
  end
  begin
     id 20
     name lwrist
     direction 1 -4.4901e-011 9.13299e-027   
     length 1.6226   
     axis -6.84618e-015 90 90   XYZ
    dof ry
    limits (-180.0 0.0)
 end
  begin
     id 21 
     name lhand
     direction 1 -4.48816e-011 1.82293e-026   
     length 0.521221   
     axis -1.16502e-014 90 90   XYZ
    dof rx rz
    limits (-90.0 90.0)
           (-45.0 45.0)
  end
  begin
     id 22 
     name lfingers
     direction 1 -4.49108e-011 3.65687e-026   
     length 0.420221   
     axis -2.33008e-014 90 90   XYZ
    dof rx
    limits (0.0 90.0)
  end
  begin
     id 23
     name lthumb
     direction 0.707107 -6.34943e-011 0.707107   
     length 0.603356   
     axis -90 45 5.69224e-014   XYZ
    dof rx rz
    limits (-45.0 45.0)
           (-45.0 45.0)
  end
  begin
     id 24 
     name rclavicle
     direction -0.90847 0.38596 0.160368   
     length 3.12973  
     axis 0 0 0   XYZ 
    dof ry rz
    limits (-10.0 20.0)
           (-20.0 0.0)
  end
  begin
     id 25 
     name rhumerus
     direction -1 -4.48974e-011 4.47268e-028  
     length 4.72284   
     axis 180 30 90   XYZ
    dof rx ry rz
    limits (-90.0 60.0)
           (-90.0 90.0)
           (-90.0 90.0)
  end
  begin
     id 26 
     name rradius
     direction -1 -4.48969e-011 3.43203e-027   
     length 3.23459   
     axis 180 30 90   XYZ
    dof rx
    limits (-10.0 170.0)
  end
  begin
     id 27 
     name rwrist
     direction -1 -4.48969e-011 9.12911e-027   
     length 1.6173   
     axis -6.84618e-015 -90 -90   XYZ
    dof ry
    limits (-180.0 0.0)
  end
  begin
     id 28
     name rhand
     direction -1 -4.49194e-011 1.83006e-026   
     length 0.307416   
     axis -1.16502e-014 -90 -90   XYZ
    dof rx rz
    limits (-90.0 90.0)
           (-45.0 45.0)
  end
  begin
     id 29
     name rfingers
     direction -1 -4.48423e-011 3.63103e-026   
     length 0.247847   
     axis -2.33008e-014 -90 -90   XYZ
    dof rx
    limits (0.0 90.0)
  end
  begin
     id 30
     name rthumb
     direction -0.707107 -6.34802e-011 0.707107   
     length 0.35586   
     axis -90 -45 -5.69224e-014   XYZ
    dof rx rz
    limits (-45.0 45.0)
           (-45.0 45.0)
  end
:hierarchy
  begin
    root lhipjoint rhipjoint lowerback
    lhipjoint lfemur
    lfemur ltibia
    ltibia lfoot
    lfoot ltoes
    rhipjoint rfemur
    rfemur rtibia
    rtibia rfoot
    rfoot rtoes
    lowerback upperback
    upperback thorax
    thorax lowerneck lclavicle rclavicle
    lowerneck upperneck
    upperneck head
    lclavicle lhumerus
    lhumerus lradius
    lradius lwrist
    lwrist lhand lthumb
    lhand lfingers
    rclavicle rhumerus
    rhumerus rradius
    rradius rwrist
    rwrist rhand rthumb
    rhand rfingers
  end

#!OML:ASF H:\Terrain\Patient Classification 1\Animal1\Tuesday\Animal1.ASF
:FULLY-SPECIFIED
:DEGREES
1325
root -0.893744 16.3207 4.30837 -870.969 -39.995 -197.393
lowerback 19.8245 1.18129 -0.61197
upperback 3.45338 0.967556 -1.17937
thorax -7.33767 0.320001 -1.15212
lowerneck -10.2147 -2.45237 -9.91247
upperneck 6.20701 -2.54776 7.41333
head 3.73595 -1.13575 3.72752
rclavicle -1.11319e-014 4.77083e-015
rhumerus -60.3356 8.69061 -99.6845
rradius 45.4131
rwrist -75.9157
rhand 23.1224 -357.443
rfingers 7.12502
rthumb 47.432 -19.9169
lclavicle -1.11319e-014 4.77083e-015
lhumerus -54.3131 7.20595 85.5065
lradius 37.0045
lwrist 7.26338
lhand 61.1473 63.2183
lfingers 7.12502
lthumb 74.8105 26.6794
rfemur -63.1569 -6.46838 29.0426
rtibia 48.1603
rfoot 28.0375 -5.95617
rtoes 24.4955
lfemur -32.5246 -2.32657 -27.6639
ltibia 58.5649
lfoot 36.6227 0.911667
ltoes 37.6395
1326
root -1.03574 16.2841 4.13824 -871.866 -39.9367 -197.884
lowerback 20.9151 1.31675 -0.796791
upperback 3.6201 1.05795 -1.11004
thorax -7.74274 0.351421 -1.01251
lowerneck -10.0958 -2.60734 -9.86319
upperneck 6.295 -2.77103 7.34518
head 3.76126 -1.25072 3.68404
rclavicle 7.15625e-015 1.59028e-014
rhumerus -60.4931 8.27797 -99.2072
rradius 45.9438
rwrist -75.6335
rhand 22.5202 -357.282
rfingers 7.12502
rthumb 46.8752 -20.0031
lclavicle 7.15625e-015 1.59028e-014
lhumerus -54.4767 7.45996 85.5131
lradius 37.1181
lwrist 6.57097
lhand 62.0209 62.0077
lfingers 7.12502
lthumb 74.9149 22.2621
rfemur -61.7053 -6.7534 28.6193
rtibia 49.8484
rfoot 25.8417 -4.4384
rtoes 20.1825
lfemur -32.0535 -3.41965 -27.5731
ltibia 60.1304
lfoot 40.1818 4.83428
ltoes 44.8009
1327
root -1.17385 16.228 3.98944 -872.203 -39.7961 -197.881
lowerback 21.1478 1.45164 -0.608121
upperback 3.53908 1.28638 -1.00718
thorax -7.95061 0.45866 -1.07713
lowerneck -9.97861 -2.78817 -10.0665
upperneck 6.44982 -3.01556 7.48519
head 3.81592 -1.37276 3.7456
rclavicle -1.43125e-014 -4.77083e-015
rhumerus -60.5711 7.98979 -98.7694
rradius 45.8683
rwrist -75.0149
rhand 22.1956 -357.585
rfingers 7.12502
rthumb 46.5746 -20.4367
lclavicle -1.43125e-014 -4.77083e-015
lhumerus -54.6261 7.8204 85.4684
lradius 37.2042
lwrist 5.55432
lhand 62.4987 62.0615
lfingers 7.12502
lthumb 74.9513 20.5462
rfemur -61.3903 -6.81928 28.7716
rtibia 51.39
rfoot 24.6072 -2.50717
rtoes 12.6649
lfemur -33.1142 -4.5833 -27.2025
ltibia 62.1568
lfoot 43.3261 5.81647
ltoes 41.5253
1328
root -1.29925 16.1963 3.83644 -873.381 -39.8986 -197.194
lowerback 22.1226 1.47607 0.0487722
upperback 3.5333 1.46928 -0.720504
thorax -8.46278 0.52116 -1.21311
lowerneck -10.0719 -2.96414 -10.3727
upperneck 6.5611 -3.22588 7.71497
head 3.89287 -1.47189 3.85269
rclavicle -2.06736e-014 1.59028e-015
rhumerus -60.5528 8.11553 -98.4807
rradius 45.424
rwrist -74.3256
rhand 22.2414 -358.01
rfingers 7.12502
rthumb 46.6171 -20.8429
lclavicle -2.06736e-014 1.59028e-015
lhumerus -54.6576 8.34076 85.2755
lradius 37.2475
lwrist 4.97663
lhand 62.8038 62.3941
lfingers 7.12502
lthumb 74.9668 19.7448
rfemur -60.5245 -6.86435 29.4801
rtibia 52.755
rfoot 23.6712 -2.01031
rtoes 9.67023
lfemur -33.9068 -5.73979 -26.1742
ltibia 64.3948
lfoot 45.0462 6.53335
ltoes 42.4424
1329
root -1.425 16.1689 3.69122 -874.565 -39.9396 -196.351
lowerback 23.1068 1.4426 0.790118
upperback 3.51634 1.60863 -0.473342
thorax -8.9855 0.554908 -1.4304
lowerneck -10.1465 -3.08085 -10.4357
upperneck 6.4673 -3.36947 7.78842
head 3.89231 -1.53849 3.87511
rclavicle 1.98785e-014 -4.6118e-014
rhumerus -60.4852 8.36265 -98.301
rradius 44.9151
rwrist -73.4857
rhand 23.356 -358.369
rfingers 7.12502
rthumb 47.6477 -20.7448
lclavicle 1.98785e-014 -4.6118e-014
lhumerus -54.6653 8.84333 84.9232
lradius 37.3199
lwrist 5.03689
lhand 62.7403 61.6147
lfingers 7.12502
lthumb 74.9641 19.2017
rfemur -59.7393 -6.88729 30.2714
rtibia 53.9328
rfoot 23.0774 -2.60439
rtoes 10.9969
lfemur -34.9848 -6.92801 -25.1321
ltibia 66.9118
lfoot 44.8976 7.35387
ltoes 43.4636
1330
root -1.54655 16.1306 3.55393 -875.423 -39.7337 -195.496
lowerback 23.8154 1.49561 1.40651
upperback 3.42883 1.84976 -0.290696
thorax -9.43578 0.641199 -1.6753
lowerneck -10.2302 -3.17941 -10.4533
upperneck 6.31009 -3.48893 7.83451
head 3.87061 -1.59287 3.88297
rclavicle -3.02153e-014 -3.18055e-014
rhumerus -60.49 8.6096 -98.3122
rradius 44.3847
rwrist -72.6576
rhand 24.7005 -358.574
rfingers 7.12502
rthumb 48.8861 -20.3628
lclavicle -3.02153e-014 -3.18055e-014
lhumerus -54.5952 9.17073 84.7038
lradius 37.4005
lwrist 4.93043
lhand 62.6543 60.9162
lfingers 7.12502
lthumb 74.9599 18.823
rfemur -59.3657 -6.8173 31.1056
rtibia 54.9865
rfoot 22.8779 -2.24581
rtoes 8.28697
lfemur -36.6201 -7.88518 -24.2442
ltibia 69.5724
lfoot 43.4604 6.89063
ltoes 42.5874
1331
root -1.65793 16.0944 3.42462 -876.438 -39.4282 -194.151
lowerback 24.4869 1.6202 2.25748
upperback 3.32227 2.26538 -0.0438892
thorax -9.86923 0.798527 -2.04177
lowerneck -10.2144 -3.28746 -10.3756
upperneck 5.91216 -3.63244 7.8525
head 3.75959 -1.65896 3.86533
rclavicle 7.95139e-015 0
rhumerus -60.5639 9.00248 -98.5414
rradius 43.9396
rwrist -72.4775
rhand 25.9096 -358.011
rfingers 7.12502
rthumb 49.9949 -19.2366
lclavicle 7.95139e-015 0
lhumerus -54.4474 9.15401 84.7984
lradius 37.6035
lwrist 4.66659
lhand 62.2675 61.3439
lfingers 7.12502
lthumb 74.9355 20.6859
rfemur -59.1388 -6.5247 32.2981
rtibia 55.9637
rfoot 22.8454 -1.58663
rtoes 4.28557
lfemur -38.6593 -8.51717 -22.9379
ltibia 72.2847
lfoot 42.022 3.85457
ltoes 38.1449
1332
root -1.76218 16.0652 3.30132 -877.377 -39.0861 -192.807
lowerback 25.1644 1.73676 3.08561
upperback 3.21453 2.67229 0.145798
thorax -10.2972 0.945034 -2.46157
lowerneck -10.0548 -3.37905 -10.0368
upperneck 5.33849 -3.79306 7.82331
head 3.56767 -1.73291 3.79115
rclavicle 4.45278e-014 -2.8625e-014
rhumerus -60.7615 9.63837 -99.0648
rradius 43.6838
rwrist -72.8739
rhand 26.3867 -357.249
rfingers 7.12502
rthumb 50.4311 -18.242
lclavicle 4.45278e-014 -2.8625e-014
lhumerus -54.226 8.87581 85.043
lradius 37.7501
lwrist 4.49338
lhand 61.0449 61.6906
lfingers 7.12502
lthumb 74.7951 25.5245
rfemur -59.0033 -6.12486 33.2989
rtibia 57.0444
rfoot 22.5884 -2.15477
rtoes 5.8585
lfemur -40.9249 -9.18284 -21.4582
ltibia 74.9156
lfoot 38.8682 3.26241
ltoes 34.7862
1333
root -1.86077 16.0266 3.18548 -878.017 -38.5243 -192.195
lowerback 26.0755 1.93943 3.30834
upperback 3.21284 3.01305 0.212181
thorax -10.7494 1.0717 -2.66241
lowerneck -10.1544 -3.55166 -9.93487
upperneck 4.97017 -4.03102 8.00683
head 3.49626 -1.83777 3.81456
rclavicle -8.34896e-014 3.33958e-014
rhumerus -60.842 10.0426 -99.3835
rradius 43.4328
rwrist -72.7702
rhand 25.9835 -356.672
rfingers 7.12502
rthumb 50.0626 -17.8615
lclavicle -8.34896e-014 3.33958e-014
lhumerus -53.7411 8.64096 85.3545
lradius 37.7414
lwrist 4.26174
lhand 61.1784 61.5143
lfingers 7.12502
lthumb 74.815 24.8621
rfemur -58.8379 -5.7888 33.5949
rtibia 58.2467
rfoot 22.3266 -1.74209
rtoes 6.06057
lfemur -42.9919 -10.0489 -20.5458
ltibia 77.1693
lfoot 38.2458 1.37263
ltoes 28.8664
1334
root -1.97016 15.9342 3.07887 -878.341 -37.8758 -191.967
lowerback 26.8652 2.24583 3.28703
upperback 3.26578 3.40457 0.199035
thorax -11.0775 1.23208 -2.83072
lowerneck -10.3368 -3.80413 -9.92639
upperneck 4.65373 -4.36599 8.29221
head 3.46777 -1.98743 3.87706
rclavicle -6.36111e-015 7.95139e-015
rhumerus -60.7107 10.0131 -99.4019
rradius 43.2115
rwrist -72.496
rhand 25.4855 -355.998
rfingers 7.12502
rthumb 49.6065 -17.4253
lclavicle -6.36111e-015 7.95139e-015
lhumerus -53.0207 8.41888 85.4339
lradius 37.6127
lwrist 4.22165
lhand 61.9753 62.642
lfingers 7.12502
lthumb 74.9106 23.0648
rfemur -59.1009 -5.55285 33.6746
rtibia 59.779
rfoot 22.1836 0.585182
rtoes -0.843568
lfemur -45.39 -11.0478 -19.9699
ltibia 79.2518
lfoot 36.0411 0.191366
ltoes 24.9802
1335
root -2.07271 15.9061 2.95531 -878.453 -37.302 -191.788
lowerback 27.1153 2.50742 3.23631
upperback 3.3973 3.70907 0.172958
thorax -11.0378 1.36776 -2.9435
lowerneck -10.2293 -3.99365 -9.81451
upperneck 3.93524 -4.64133 8.60091
head 3.26493 -2.113 3.9387
rclavicle -1.145e-013 3.18055e-014
rhumerus -60.6245 10.4983 -99.8089
rradius 43.0262
rwrist -72.9778
rhand 24.9113 -356.069
rfingers 7.12502
rthumb 49.0797 -17.7616
lclavicle -1.145e-013 3.18055e-014
lhumerus -52.283 7.67493 86.1061
lradius 37.397
lwrist 3.39369
lhand 59.9413 63.0722
lfingers 7.12502
lthumb 74.5879 30.8672
rfemur -59.2907 -5.51891 33.7012
rtibia 61.1798
rfoot 21.9377 1.75672
rtoes -4.60423
lfemur -47.7196 -12.0384 -19.326
ltibia 80.6197
lfoot 34.4473 -0.776187
ltoes 22.6778
1336
root -2.17394 15.903 2.82247 -878.609 -36.7776 -191.662
lowerback 27.4977 2.59284 3.12137
upperback 3.45897 3.77462 0.145269
thorax -11.1671 1.39008 -2.94814
lowerneck -10.2571 -4.09375 -9.82984
upperneck 3.40412 -4.77605 8.93768
head 3.13219 -2.16938 4.03787
rclavicle -7.63333e-014 -9.54166e-015
rhumerus -60.8349 11.4104 -100.569
rradius 42.8385
rwrist -73.5903
rhand 24.0331 -356.704
rfingers 7.12502
rthumb 48.272 -18.7893
lclavicle -7.63333e-014 -9.54166e-015
lhumerus -51.9034 7.28456 86.4272
lradius 37.6253
lwrist 2.84291
lhand 58.2193 63.5072
lfingers 7.12502
lthumb 74.1197 37.2225
rfemur -59.4038 -5.66495 33.638
rtibia 62.523
rfoot 21.8861 0.718151
rtoes 0.726103
lfemur -49.8174 -12.9152 -18.7079
ltibia 81.5323
lfoot 32.9671 -0.982969
ltoes 21.5736
1337
root -2.27455 15.8932 2.68887 -878.966 -36.3409 -191.393
lowerback 27.914 2.67452 3.10244
upperback 3.60687 3.86249 0.230328
thorax -11.214 1.41922 -2.88641
lowerneck -10.4465 -4.23444 -9.87687
upperneck 2.95657 -4.93529 9.06934
head 3.04829 -2.2436 4.07438
rclavicle -9.54166e-015 -1.08139e-013
rhumerus -60.8722 11.9261 -100.84
rradius 42.7966
rwrist -73.843
rhand 24.1679 -356.465
rfingers 7.12502
rthumb 48.3961 -18.4914
lclavicle -9.54166e-015 -1.08139e-013
lhumerus -51.4719 7.15228 86.6325
lradius 37.6958
lwrist 2.12341
lhand 58.1222 64.098
lfingers 7.12502
lthumb 74.0883 38.1361
rfemur -59.2186 -5.94864 33.7943
rtibia 63.6066
rfoot 21.7514 0.553184
rtoes 2.83551
lfemur -51.786 -13.6387 -17.9386
ltibia 82.044
lfoot 31.356 -0.270487
ltoes 21.9849
1338
root -2.37061 15.8772 2.55527 -879.487 -35.9285 -190.911
lowerback 28.3915 2.79216 3.25018
upperback 3.74515 4.04924 0.328555
thorax -11.2847 1.4849 -2.94459
lowerneck -10.3166 -4.45161 -9.90985
upperneck 2.28121 -5.22454 9.32801
head 2.86144 -2.38678 4.14507
rclavicle 3.18055e-015 3.33958e-014
rhumerus -60.8779 12.0703 -100.946
rradius 42.7079
rwrist -73.9687
rhand 25.1269 -355.557
rfingers 7.12502
rthumb 49.2776 -17.1506
lclavicle 3.18055e-015 3.33958e-014
lhumerus -50.9611 7.15799 86.603
lradius 37.2133
lwrist 1.31484
lhand 57.4821 64.3129
lfingers 7.12502
lthumb 73.8684 40.4445
rfemur -58.7339 -6.19845 34.1896
rtibia 64.3949
rfoot 21.684 0.684699
rtoes 2.38243
lfemur -53.6953 -14.1158 -17.0317
ltibia 82.1489
lfoot 29.6992 0.156829
ltoes 21.3989
1339
root -2.45985 15.872 2.4174 -879.866 -35.5062 -190.58
lowerback 28.7379 2.90522 3.1589
upperback 3.92599 4.15003 0.435071
thorax -11.2618 1.52419 -2.8176
lowerneck -10.2712 -4.69067 -10.0591
upperneck 1.71137 -5.53047 9.68729
head 2.72939 -2.53533 4.26359
rclavicle -6.83819e-014 1.08139e-013
rhumerus -60.8209 12.2759 -101.03
rradius 42.5757
rwrist -74.1263
rhand 24.6051 -355.46
rfingers 7.12502
rthumb 48.7984 -17.2911
lclavicle -6.83819e-014 1.08139e-013
lhumerus -50.4778 7.09802 86.7091
lradius 36.9451
lwrist 0.94208
lhand 57.5258 63.1078
lfingers 7.12502
lthumb 73.8841 39.0985
rfemur -58.3396 -6.47824 34.4965
rtibia 65.0428
rfoot 21.7935 0.179356
rtoes 5.40162
lfemur -55.5297 -14.4696 -16.312
ltibia 81.8123
lfoot 28.3165 -0.512056
ltoes 18.0412
